<svg width="1080" height="1080" viewBox="0 0 1080 1080" fill="none" xmlns="http://www.w3.org/2000/svg">
<rect width="1080" height="1080" fill="#CA0D0D"/>
<path d="M419.256 723.051C416.699 726.033 413.717 727.737 410.309 728.163C406.901 728.163 403.493 728.589 400.084 729.441C394.12 731.144 386.238 733.913 376.44 737.747C367.067 741.58 356.629 745.84 345.126 750.525C334.05 755.211 322.547 760.109 310.618 765.22C298.689 770.332 287.612 774.804 277.388 778.638C267.163 782.897 258.216 786.305 250.548 788.86C242.879 791.842 237.554 793.333 234.572 793.333C220.087 793.333 206.667 789.925 194.312 783.11C181.957 776.721 173.436 766.285 168.75 751.803C163.212 743.284 161.081 730.505 162.359 713.468C163.638 696.43 167.046 677.688 172.584 657.242C177.697 636.371 184.3 614.86 192.395 592.711C200.489 570.136 208.584 548.838 216.678 528.819C224.773 508.799 232.441 491.122 239.684 475.788C246.926 460.454 252.039 449.592 255.021 443.203C257.577 438.518 260.133 434.045 262.69 429.786C265.246 425.1 268.015 420.415 270.997 415.729L272.275 414.452C275.684 411.044 280.157 408.275 285.695 406.146C290.808 404.442 296.346 404.655 302.31 406.785C308.275 408.914 313.6 411.896 318.287 415.729C323.399 419.563 327.659 424.035 331.067 429.147C334.476 433.832 336.18 438.305 336.18 442.564C336.18 446.824 335.115 450.87 332.985 454.704C331.28 458.537 329.363 462.371 327.233 466.204C322.121 476.001 316.156 488.354 309.34 503.262C302.949 518.17 296.133 534.143 288.89 551.181C282.074 567.793 275.257 584.831 268.441 602.295C261.624 619.759 255.447 635.945 249.909 650.853C244.37 665.761 239.897 678.753 236.489 689.827C233.08 700.902 231.163 708.356 230.737 712.19V713.468C230.737 713.893 230.737 714.319 230.737 714.745C231.163 714.745 231.376 714.958 231.376 715.384C232.228 716.236 233.507 716.662 235.211 716.662C237.341 716.662 238.832 716.449 239.684 716.023C245.648 714.319 255.447 711.125 269.08 706.439C282.713 701.754 296.772 697.069 311.257 692.383C326.168 687.272 339.801 682.799 352.156 678.966C364.511 674.706 372.392 672.151 375.801 671.299H376.44C385.812 670.447 394.12 671.938 401.362 675.771C403.919 677.049 406.901 679.605 410.309 683.438C413.717 687.272 416.486 691.744 418.617 696.856C420.747 701.541 422.025 706.439 422.451 711.551C423.303 716.236 422.238 720.07 419.256 723.051Z" fill="white"/>
<path d="M606.072 667.465C604.793 668.317 603.515 668.956 602.237 669.382C600.959 669.382 599.894 669.595 599.042 670.021C584.983 675.132 570.711 679.605 556.226 683.438C542.167 686.846 527.895 690.679 513.41 694.939C511.28 699.198 509.15 703.458 507.02 707.717C504.889 711.551 502.759 715.597 500.629 719.857C498.499 723.264 496.156 726.885 493.6 730.718C491.469 734.552 489.339 738.173 487.209 741.58C485.079 744.988 482.523 748.182 479.541 751.164C476.558 754.146 472.724 755.636 468.038 755.636C460.795 754.785 455.257 752.442 451.423 748.608C445.884 743.497 443.115 737.108 443.115 729.441C442.689 721.774 443.115 714.532 444.393 707.717C445.671 699.624 447.801 691.531 450.784 683.438C453.34 674.919 456.109 666.826 459.091 659.159C459.943 656.603 461.008 654.048 462.286 651.492C463.564 648.51 464.63 645.742 465.482 643.186C470.594 630.834 476.132 618.694 482.097 606.767C488.487 594.841 494.878 582.914 501.268 570.988C508.511 557.357 515.966 543.94 523.635 530.736C531.729 517.105 539.824 503.475 547.918 489.845C555.587 476.64 561.551 466.204 565.812 458.537C570.498 450.87 574.545 443.842 577.954 437.453C581.362 431.064 584.983 424.035 588.817 416.368C593.078 408.275 598.829 397.414 606.072 383.783L607.989 379.311C628.864 374.2 645.692 373.135 658.473 376.116C671.68 379.098 681.692 384.422 688.508 392.089C695.325 399.756 699.798 409.127 701.928 420.202C704.058 430.851 704.911 441.286 704.485 451.509C703.206 475.788 701.502 497.725 699.372 517.318C697.668 536.912 695.751 556.08 693.621 574.821C691.491 593.563 689.36 612.731 687.23 632.324C685.1 651.918 683.183 673.854 681.479 698.133C681.053 704.097 680.627 709.847 680.201 715.384C679.775 720.922 679.136 726.459 678.284 731.996C677.858 736.682 677.219 741.154 676.367 745.414C675.94 750.099 675.088 754.785 673.81 759.47C672.532 765.433 669.55 770.545 664.864 774.804C660.603 779.49 656.13 783.536 651.444 786.944C646.757 790.351 641.219 793.546 634.829 796.528C628.438 799.509 622.261 801 616.296 801C609.906 800.148 605.006 797.805 601.598 793.972C598.19 789.286 596.912 783.749 597.764 777.36C598.616 770.971 599.468 765.22 600.32 760.109C600.746 756.701 600.959 753.294 600.959 749.886C601.385 746.905 601.811 743.71 602.237 740.302C602.663 733.487 603.089 726.885 603.515 720.496C603.941 714.106 604.367 707.504 604.793 700.689C605.22 695.152 605.433 689.827 605.433 684.716C605.859 679.179 606.072 673.428 606.072 667.465ZM623.965 498.789C623.113 500.493 622.048 501.984 620.77 503.262C615.231 511.781 609.906 520.3 604.793 528.819C599.681 537.338 594.569 545.857 589.456 554.376C583.918 563.321 578.593 572.479 573.48 581.849C568.368 590.794 563.256 599.739 558.143 608.684L552.392 618.268C556.226 617.416 559.847 616.351 563.256 615.073C567.09 613.796 570.924 612.518 574.758 611.24C579.445 609.536 584.131 608.045 588.817 606.767C593.504 605.064 598.19 603.36 602.876 601.656C604.58 601.23 607.563 600.165 611.823 598.461C612.249 595.054 612.675 591.646 613.101 588.239C613.527 584.405 613.953 580.785 614.379 577.377C615.231 570.988 616.083 564.599 616.935 558.209C618.213 551.394 619.278 544.579 620.131 537.764C620.557 534.356 620.983 529.032 621.409 521.791C622.261 514.124 623.113 506.457 623.965 498.789Z" fill="white"/>
<path d="M777.196 646.381C770.805 645.529 765.906 643.186 762.498 639.352C758.664 635.519 756.533 630.621 756.107 624.657C755.681 618.268 756.107 611.666 757.385 604.851C758.664 598.035 760.368 591.433 762.498 585.044C764.628 578.655 766.332 573.117 767.61 568.432C768.888 563.747 771.231 555.015 774.64 542.236C778.474 529.458 782.734 514.976 787.421 498.789C792.107 482.177 797.006 464.714 802.119 446.398C807.231 428.082 811.917 410.831 816.178 394.645C820.864 378.459 824.698 364.403 827.68 352.476C830.663 340.124 832.58 332.031 833.432 328.197C835.136 320.104 835.775 311.798 835.349 303.279C835.349 299.871 835.349 296.677 835.349 293.695C835.349 290.288 836.627 287.306 839.183 284.75C842.592 280.917 846.639 279 851.325 279C856.011 279 860.485 279.213 864.745 279.639C874.544 280.491 884.342 282.621 894.141 286.028C903.94 289.01 911.182 295.399 915.869 305.196C918.851 312.437 919.703 319.891 918.425 327.558C917.573 334.799 916.082 341.827 913.952 348.643C907.561 369.514 901.384 388.895 895.419 406.785C889.881 424.674 884.342 442.351 878.804 459.815C873.266 476.853 867.727 494.53 862.189 512.846C856.65 530.736 851.112 550.329 845.574 571.627C842.592 581.423 839.822 591.007 837.266 600.378C834.71 609.749 831.089 618.055 826.402 625.296C821.716 632.537 815.539 638.075 807.87 641.908C800.202 645.742 789.977 647.233 777.196 646.381ZM727.35 733.913C724.368 727.524 723.516 720.922 724.794 714.106C726.072 706.013 730.333 698.772 737.575 692.383C744.818 685.994 752.699 681.521 761.22 678.966C770.166 675.984 778.9 675.345 787.421 677.049C796.367 678.753 803.184 683.438 807.87 691.105C813.834 700.902 815.113 709.634 811.704 717.301C808.296 724.968 802.332 731.783 793.811 737.747C789.977 740.302 785.077 742.432 779.113 744.136C773.149 746.266 766.971 747.33 760.581 747.33C754.19 747.756 748.013 747.118 742.048 745.414C736.51 743.71 732.037 740.728 728.628 736.469L727.35 733.913Z" fill="white"/>
</svg>
